<svg xmlns="http://www.w3.org/2000/svg" viewBox="0 0 61.92 61.95"><title>embedding</title><path d="M264.22,303.46l19.89,9.71,9.69-19.85-7.9-3.86-.23.47a5.32,5.32,0,0,0-.44,3.1,3.87,3.87,0,1,1-7.32-1.21,3.81,3.81,0,0,1,1.52-1.63,5.48,5.48,0,0,0,2.15-2.25l.23-.47-7.9-3.86-3.83,7.86-.48-.23a5.36,5.36,0,0,1-2.24-2.16,3.82,3.82,0,0,0-1.64-1.51,3.87,3.87,0,1,0-1.21,7.31,5.41,5.41,0,0,1,3.1.45l.47.23Z" transform="translate(-243 -252.59)" fill="#919fbb"/><path d="M284.59,314.55l-21.75-10.62,3.85-7.87a4.74,4.74,0,0,0-2-.16,4.89,4.89,0,0,1-5.36-6.15,4.9,4.9,0,0,1,9-1.19,4.42,4.42,0,0,0,1.37,1.5l3.82-7.83,9.75,4.76-.68,1.4a6.44,6.44,0,0,1-2.57,2.69,2.85,2.85,0,0,0,.71,5.19,2.83,2.83,0,0,0,3.55-3.1,6.42,6.42,0,0,1,.55-3.69l.68-1.4,9.75,4.77ZM265.6,303l18,8.81,8.78-18-6-2.93a4.54,4.54,0,0,0-.16,2,4.9,4.9,0,1,1-9.27-1.52,4.82,4.82,0,0,1,1.93-2.07,4.59,4.59,0,0,0,1.49-1.37l-6-2.94-3.83,7.86-1.4-.68a6.51,6.51,0,0,1-2.69-2.57,2.84,2.84,0,1,0-2.08,4.26,6.48,6.48,0,0,1,3.68.54l1.4.68Z" transform="translate(-243 -252.59)" fill="#272f37"/><path d="M287.63,277.11a3.86,3.86,0,0,0-4.23-4.85,5.37,5.37,0,0,1-3.09-.45l-.47-.23,3.85-7.9L263.8,254l-9.71,19.89L274,283.57l3.86-7.9.47.23a5.38,5.38,0,0,1,2.25,2.16,3.79,3.79,0,0,0,1.63,1.51A3.88,3.88,0,0,0,287.63,277.11Z" transform="translate(-243 -252.59)" fill="#e8e8e8"/><path d="M274.46,285l-21.75-10.61,10.62-21.75,21.74,10.62-3.84,7.86a4.44,4.44,0,0,0,2,.16,4.89,4.89,0,0,1,5.35,6.16h0a4.9,4.9,0,0,1-6.88,3.11,4.82,4.82,0,0,1-2.07-1.93,4.59,4.59,0,0,0-1.37-1.49Zm-19-11.56,18,8.8,3.85-7.9,1.4.68a6.44,6.44,0,0,1,2.69,2.57,2.85,2.85,0,0,0,5.19-.71h0a2.85,2.85,0,0,0-1-2.95,2.74,2.74,0,0,0-2.14-.6,6.42,6.42,0,0,1-3.69-.54l-1.39-.69,3.85-7.9-18-8.8Z" transform="translate(-243 -252.59)" fill="#272f37"/><path d="M293.83,293.26l9.71-19.89-19.85-9.69-3.85,7.9.47.23a5.37,5.37,0,0,0,3.09.45,3.87,3.87,0,1,1-1.21,7.31,3.79,3.79,0,0,1-1.63-1.51,5.38,5.38,0,0,0-2.25-2.16l-.47-.23-3.86,7.9,7.86,3.83-.23.48a5.42,5.42,0,0,1-2.15,2.25,3.76,3.76,0,0,0-1.52,1.63,3.87,3.87,0,1,0,7.32,1.21,5.32,5.32,0,0,1,.44-3.1l.23-.47Z" transform="translate(-243 -252.59)" fill="#e8e8e8"/><path d="M281.42,298.37a4.8,4.8,0,0,1-1.3-.18,4.9,4.9,0,0,1-1.18-9,4.48,4.48,0,0,0,1.49-1.37L272.6,284l4.76-9.75,1.4.68a6.44,6.44,0,0,1,2.69,2.57,2.84,2.84,0,1,0,4.23-3.66,2.74,2.74,0,0,0-2.14-.6,6.42,6.42,0,0,1-3.69-.54l-1.39-.69,4.76-9.75,21.7,10.59-10.61,21.75-7.87-3.84a4.53,4.53,0,0,0-.16,2,4.91,4.91,0,0,1-4.86,5.54Zm-6.06-15.27,7.86,3.83-.68,1.4A6.44,6.44,0,0,1,280,291a2.75,2.75,0,0,0-1.1,1.19,2.84,2.84,0,0,0,1.81,4,2.85,2.85,0,0,0,3-1,2.8,2.8,0,0,0,.59-2.14,6.4,6.4,0,0,1,.55-3.68l.68-1.4,7.9,3.86,8.8-18-18-8.78-2.94,6a4.44,4.44,0,0,0,2,.16,4.9,4.9,0,1,1-1.53,9.27,4.82,4.82,0,0,1-2.07-1.93,4.59,4.59,0,0,0-1.37-1.49Z" transform="translate(-243 -252.59)" fill="#272f37"/><path d="M267.91,295.6a5.41,5.41,0,0,0-3.1-.45,3.86,3.86,0,1,1,2.85-5.8,5.33,5.33,0,0,0,2.25,2.16l.16.08,3.9-8-7.9-3.86.23-.47a5.44,5.44,0,0,1,2.16-2.25,3.87,3.87,0,1,0-5.8-2.84,5.41,5.41,0,0,1-.45,3.1l-.23.47-7.9-3.86-9.7,19.89,19.89,9.71,3.8-7.8Z" transform="translate(-243 -252.59)" fill="#e8e8e8"/><path d="M264.74,304.86,243,294.25l10.61-21.75,7.87,3.84a4.69,4.69,0,0,0,.16-2,4.9,4.9,0,1,1,9.26,1.52A4.8,4.8,0,0,1,269,277.9a4.63,4.63,0,0,0-1.5,1.37l7.87,3.85L270.54,293l-1.09-.54a6.28,6.28,0,0,1-2.68-2.56,2.84,2.84,0,1,0-2.09,4.26,6.48,6.48,0,0,1,3.68.54l1.09.53Zm-19-11.56,18,8.8,2.86-5.86a4.8,4.8,0,0,0-1.7-.06,4.91,4.91,0,1,1,3.6-7.34,4.71,4.71,0,0,0,1.09,1.28l3-6.06-7.9-3.85.68-1.4a6.42,6.42,0,0,1,2.56-2.69,2.84,2.84,0,1,0-4.26-2.09,6.42,6.42,0,0,1-.54,3.69l-.68,1.4-7.9-3.86Z" transform="translate(-243 -252.59)" fill="#272f37"/><rect x="293.89" y="293.65" width="2.06" height="5.29" transform="translate(-343.71 178.76) rotate(-63.98)" fill="#272f37"/><rect x="291.32" y="298.43" width="2.06" height="4.53" transform="translate(-349.11 178.95) rotate(-63.99)" fill="#272f37"/><rect x="291.24" y="301.51" width="2.06" height="6.92" transform="translate(-353 181.21) rotate(-63.98)" fill="#272f37"/><rect x="288.11" y="305.65" width="2.06" height="5.54" transform="translate(-357.82 180.46) rotate(-63.99)" fill="#272f37"/><rect x="285.94" y="310.56" width="2.06" height="2.65" transform="translate(-362.15 180.47) rotate(-64)" fill="#272f37"/><polygon points="56.32 52.7 54.14 51.62 55.04 49.77 57.23 50.85 56.32 52.7" fill="#272f37"/><polygon points="53.35 60.35 50.62 59.06 51.52 57.2 54.25 58.49 53.35 60.35" fill="#272f37"/></svg>