<svg xmlns="http://www.w3.org/2000/svg" viewBox="0 0 52.38 61.56"><title>speed</title><path d="M158,319.7l8.63,10.45a.16.16,0,0,1-.16.25l-5.72-1.29-4,4.32a.16.16,0,0,1-.28-.12l1.15-13.5A.19.19,0,0,1,158,319.7Z" transform="translate(-156.5 -283.59)" fill="#272f37"/><rect x="23.39" y="2.01" width="7.08" height="8.95" fill="#272f37"/><rect x="21.48" width="10.9" height="6.42" rx="0.76" ry="0.76" fill="#272f37"/><rect x="199.14" y="296.17" width="3.6" height="4.55" transform="translate(98.42 -340.86) rotate(42.58)" fill="#272f37"/><rect x="198.75" y="295.84" width="7.04" height="2.31" rx="0.6" ry="0.6" transform="translate(97.79 -342.15) rotate(42.58)" fill="#272f37"/><path d="M183.16,345.12h-.81A25.51,25.51,0,0,1,160,331.3l2-1a23.59,23.59,0,1,0,21.94-34.53,24.08,24.08,0,0,0-23.52,16.78l-2.11-.64A26.23,26.23,0,0,1,184,293.56a25.79,25.79,0,0,1-.84,51.56Z" transform="translate(-156.5 -283.59)" fill="#272f37"/><path d="M183.52,304.2h0v15H168.4v.12a15.12,15.12,0,1,0,15.12-15.12Z" transform="translate(-156.5 -283.59)" fill="#919fbb"/><path d="M187.94,340l-.76-3c.46-.12.92-.25,1.37-.4l1,3Q188.77,339.75,187.94,340Zm-10.37-.07c-.55-.14-1.09-.31-1.62-.49l1-2.95c.45.16.9.3,1.37.42Zm20.68-6.07L196,331.7c.32-.35.64-.72.93-1.1l2.46,1.94C199,333,198.63,333.41,198.25,333.82Zm-30.92-.2c-.37-.42-.73-.85-1.07-1.3l2.49-1.89c.29.38.6.75.92,1.1Zm36.23-10.55-3.08-.54c.08-.47.15-.94.19-1.43l3.12.3C203.73,322,203.66,322.52,203.56,323.07Zm-41.37-.28c-.09-.55-.16-1.11-.2-1.68l3.12-.24c0,.48.09,1,.17,1.43Zm37.58-9.34c-.16-.46-.33-.9-.52-1.34l2.87-1.26c.22.52.42,1,.61,1.58Zm-33.2-1.3-2.87-1.25c.23-.52.48-1,.74-1.52l2.76,1.48C167,311.28,166.77,311.71,166.57,312.15Zm27.27-7a13.69,13.69,0,0,0-1.16-.84l1.72-2.61c.47.31.93.64,1.37,1Zm-20.7-.8-1.72-2.61c.46-.31,1-.6,1.44-.87l1.52,2.73C174,303.8,173.54,304.05,173.14,304.32Zm11.2-2.9c-.44,0-.87-.06-1.3-.06h-.14l0-3.13c.55,0,1.11,0,1.67.07Z" transform="translate(-156.5 -283.59)" fill="#272f37"/><path d="M183.36,345.15a26.37,26.37,0,0,1-3.53-.23A25.46,25.46,0,0,1,159,329l2.05-.81A23.59,23.59,0,1,0,186.25,296a24,24,0,0,0-25.06,14.38l-2-.84a26.26,26.26,0,0,1,27.39-15.73,26.15,26.15,0,0,1,17.41,41A25.23,25.23,0,0,1,183.36,345.15Z" transform="translate(-156.5 -283.59)" fill="#272f37"/><path d="M185.1,319.1h0a2.37,2.37,0,0,0-2.41-2.33l-14.24,2.1a.39.39,0,0,0,0,.77l14.32,1.86A2.36,2.36,0,0,0,185.1,319.1Z" transform="translate(-156.5 -283.59)" fill="#272f37"/></svg>