<svg xmlns="http://www.w3.org/2000/svg" viewBox="0 0 58.35 58.82"><title>cross-platform</title><rect y="19.39" width="51.56" height="32.15" rx="0.81" ry="0.81" fill="#272f37"/><rect x="2.26" y="21.71" width="46.91" height="24.98" rx="0.75" ry="0.75" fill="#919fbb"/><rect x="20.75" y="47.78" width="10.06" height="10.46" fill="#272f37"/><rect x="18.06" y="56.78" width="15.44" height="2.04" rx="0.24" ry="0.24" fill="#272f37"/><rect x="36.82" width="21.53" height="37.62" rx="0.83" ry="0.83" fill="#272f37"/><rect x="39.01" y="2.24" width="17.16" height="30.75" rx="0.29" ry="0.29" fill="#e8e8e8"/><circle cx="47.63" cy="35.25" r="0.92" fill="#fff"/><circle cx="25.78" cy="48.93" r="0.92" fill="#fff"/><path d="M256.43,292.66s-7.38,14.58-3.81,7.88c1.5-2.82,8.55,8,8.55,8s1-13.18,8.09-15.79C266.47,291.49,256.43,292.66,256.43,292.66Z" transform="translate(-242.37 -271.59)" fill="#272f37"/><path d="M288.24,279.63l-14.83-4.46a.3.3,0,0,0-.33.46l2.4,3.35c-13.07.27-26.19,11.25-26.19,24.68l12.27,6.85c-4.11-15.14,3.48-26.12,14.37-27.13l-1.75,3.8a.3.3,0,0,0,.41.39l13.73-7.2A.4.4,0,0,0,288.24,279.63Z" transform="translate(-242.37 -271.59)" fill="#919fbb"/></svg>