<?xml version="1.0" standalone="no"?>
<!DOCTYPE svg PUBLIC "-//W3C//DTD SVG 20010904//EN"
 "http://www.w3.org/TR/2001/REC-SVG-20010904/DTD/svg10.dtd">
<svg version="1.0" xmlns="http://www.w3.org/2000/svg"
 width="128.000000pt" height="128.000000pt" viewBox="0 0 128.000000 128.000000"
 preserveAspectRatio="xMidYMid meet">
<metadata>
Created by potrace 1.11, written by Peter Selinger 2001-2013
</metadata>
<g transform="translate(0.000000,128.000000) scale(0.100000,-0.100000)"
fill="#000000" stroke="none">
<path d="M610 1250 c-91 -17 -151 -64 -200 -160 -19 -36 -23 -59 -22 -121 1
-82 13 -122 43 -155 l21 -22 -29 -17 c-42 -25 -144 -173 -165 -240 -5 -16 -11
-46 -14 -67 -2 -20 -8 -48 -14 -63 -6 -15 -8 -30 -6 -33 3 -2 1 -12 -3 -21
-15 -26 -21 -90 -11 -96 13 -8 13 -25 -1 -25 -5 0 -7 5 -4 10 3 6 1 10 -4 10
-6 0 -11 -7 -11 -15 0 -8 4 -15 9 -15 11 0 21 -49 11 -55 -17 -11 -1 -48 29
-66 18 -11 35 -18 38 -15 3 2 24 -2 46 -11 23 -8 53 -17 66 -19 14 -3 28 -7
32 -9 27 -18 349 -27 438 -13 66 10 141 44 148 67 3 9 9 25 13 36 19 43 35
237 22 260 -4 5 -7 26 -9 46 -3 35 -20 90 -62 199 -11 30 -21 60 -21 67 0 6
-18 29 -40 51 -22 21 -40 44 -40 50 0 6 -5 14 -12 18 -6 4 -8 3 -5 -3 3 -5 0
-10 -8 -10 -19 0 -19 -1 10 33 14 16 23 35 20 42 -3 7 -1 11 4 8 5 -3 12 1 15
10 9 23 8 26 -6 18 -10 -6 -10 -4 0 7 15 16 16 85 1 130 -26 77 -129 181 -184
185 -11 1 -27 4 -35 7 -8 2 -35 1 -60 -3z m-136 -459 c-7 -7 -64 58 -64 72 0
5 16 -8 35 -29 19 -20 32 -40 29 -43z"/>
</g>
</svg>
