<svg xmlns="http://www.w3.org/2000/svg" viewBox="0 0 51.03 56.58"><title>simple</title><path d="M296.74,315.41H265.9a2.54,2.54,0,0,0-2.54,2.57l.09,8.44a17.88,17.88,0,0,0,35.75,0l.08-8.44A2.53,2.53,0,0,0,296.74,315.41Z" transform="translate(-262.23 -288.59)" fill="#919fbb"/><path d="M281.32,345.17a19.08,19.08,0,0,1-19-18.71l-.08-8.47a3.7,3.7,0,0,1,1.06-2.63,3.65,3.65,0,0,1,2.61-1.08h30.84a3.69,3.69,0,0,1,3.68,3.71l-.09,8.45A19.07,19.07,0,0,1,281.32,345.17ZM265.9,316.54a1.4,1.4,0,0,0-1.4,1.43l.08,8.44a16.75,16.75,0,0,0,33.49,0l.08-8.43a1.41,1.41,0,0,0-.41-1,1.38,1.38,0,0,0-1-.42Z" transform="translate(-262.23 -288.59)" fill="#272f37"/><path d="M272.86,315.05l-4.25,0,.07-13.54a13.24,13.24,0,0,1,26.46-.06l.07,8.93-4.26,0-.06-8.87a9,9,0,0,0-18,.05Z" transform="translate(-262.23 -288.59)" fill="#272f37"/><polygon points="19.53 47.45 12.54 41.25 15.36 38.07 19.18 41.45 26.97 32.72 30.15 35.55 19.53 47.45" fill="#272f37"/><rect x="304.4" y="306.84" width="6.92" height="2.06" transform="translate(-371.94 -103.99) rotate(-28.55)" fill="#272f37"/><rect x="306.27" y="312.96" width="6.92" height="2.06" transform="translate(-285.82 -263.42) rotate(-4.48)" fill="#272f37"/><rect x="299.98" y="302.09" width="6.92" height="2.06" transform="translate(-381.9 84.76) rotate(-54.4)" fill="#272f37"/></svg>